<?xml version="1.0" standalone="no"?>
<!DOCTYPE svg PUBLIC "-//W3C//DTD SVG 1.1//EN" "http://www.w3.org/Graphics/SVG/1.1/DTD/svg11.dtd" >
<svg xmlns="http://www.w3.org/2000/svg" xmlns:xlink="http://www.w3.org/1999/xlink" version="1.1">
<metadata></metadata>
<defs>
<font id="murs_gothicwide_dark" horiz-adv-x="1640" >
<font-face units-per-em="2048" ascent="1638" descent="-410" />
<missing-glyph horiz-adv-x="559" />
<glyph horiz-adv-x="0" />
<glyph horiz-adv-x="682" />
<glyph unicode=" "  horiz-adv-x="559" />
<glyph unicode="&#x09;" horiz-adv-x="559" />
<glyph unicode="&#xa0;" horiz-adv-x="559" />
<glyph unicode="!" horiz-adv-x="675" d="M90 0v422h496v-422h-496zM90 1434h496l-117 -883h-262z" />
<glyph unicode="&#x22;" horiz-adv-x="1310" d="M74 745l192 689h482l-353 -689h-321zM678 745l190 689h482l-351 -689h-321z" />
<glyph unicode="#" horiz-adv-x="2076" d="M70 317v287h350l100 232h-362v288h487l133 310h432l-133 -310h275l133 310h430l-131 -310h221v-288h-348l-98 -232h358v-287h-483l-136 -317h-432l135 317h-274l-135 -317h-432l135 317h-225zM850 602h278l101 236h-279z" />
<glyph unicode="$" d="M57 274l496 136q57 -125 203 -156v266l-148 23q-260 37 -386 147.5t-126 298.5q0 205 159 330t501 139v193h155v-193q283 -12 421 -104t159 -232l-434 -35q-12 51 -44 80t-102 39v-252l138 -22q274 -41 403 -151.5t129 -311.5q0 -465 -670 -494v-192h-155v192 q-303 11 -471 95t-228 204zM600 1094q0 -45 32 -74t109 -39l15 -2v231q-86 -8 -121 -37.5t-35 -78.5zM911 252q162 16 162 127q0 47 -30.5 74.5t-98.5 38.5l-33 4v-244z" />
<glyph unicode="%" horiz-adv-x="2402" d="M29 1081q0 105 59 189t177 132t284 48q168 0 286.5 -48t179 -132t60.5 -189q0 -109 -60.5 -194.5t-178 -133.5t-287.5 -48q-166 0 -284 48t-177 134t-59 194zM227 0l1557 1434h389l-1552 -1434h-394zM420 1081q0 -84 36 -127t95 -43q61 0 96 42t35 128q0 78 -35 119 t-96 41q-59 0 -95 -41t-36 -119zM1329 360q0 105 59.5 189t176 132t284.5 48t286 -48t178.5 -132t60.5 -189q0 -109 -60.5 -193.5t-178.5 -133.5t-286 -49t-284.5 49t-176 134t-59.5 193zM1720 360q0 -84 35 -125.5t94 -41.5q61 0 97 41.5t36 125.5q0 80 -35.5 121t-97.5 41 q-59 0 -94 -41t-35 -121z" />
<glyph unicode="&#x26;" horiz-adv-x="1855" d="M25 381q0 150 102 251t281 152q-82 82 -121 159t-39 163q0 158 143.5 256t448.5 98q281 0 415 -89t134 -228q0 -115 -93.5 -208t-285.5 -157l223 -196q106 133 205 288l399 -155q-150 -186 -338 -326q70 -29 147.5 -44t190.5 -19l-51 -330q-14 0 -43 -3t-60 -3 q-186 0 -317 33.5t-236 99.5q-109 -70 -220 -110t-285 -40q-301 0 -450.5 113t-149.5 295zM504 444q0 -82 57 -131t168 -49q104 0 182 51l-319 295q-39 -27 -63.5 -68.5t-24.5 -97.5zM727 1118q0 -43 27.5 -88t93.5 -100l41 18q147 57 147 166q0 55 -40 90t-111 35 q-78 0 -118 -32.5t-40 -88.5z" />
<glyph unicode="'" horiz-adv-x="708" d="M74 745l192 689h482l-351 -689h-323z" />
<glyph unicode="(" horiz-adv-x="860" d="M96 563q0 285 123 529.5t299 443.5h313q-121 -213 -197.5 -449.5t-76.5 -523.5t77 -523.5t197 -449.5h-313q-176 199 -299 444t-123 529z" />
<glyph unicode=")" horiz-adv-x="860" d="M29 -410q121 213 197.5 449.5t76.5 523.5t-76.5 523.5t-197.5 449.5h313q176 -199 299 -443.5t123 -529.5t-123 -529.5t-299 -443.5h-313z" />
<glyph unicode="*" horiz-adv-x="1079" d="M41 942l121 367l250 -152l-72 277h399l-73 -275l249 150l123 -367l-290 -16l225 -181l-322 -225l-110 271l-113 -271l-322 225l230 181z" />
<glyph unicode="+" d="M197 416v315h467v377h315v-377h465v-315h-465v-375h-315v375h-467z" />
<glyph unicode="," horiz-adv-x="669" d="M86 0v426h498v-324q0 -156 -76 -271.5t-236 -205.5l-116 150q86 63 124.5 115.5t49.5 109.5h-244z" />
<glyph unicode="-" horiz-adv-x="993" d="M92 422v303h807v-303h-807z" />
<glyph unicode="." horiz-adv-x="669" d="M86 0v426h498v-426h-498z" />
<glyph unicode="/" horiz-adv-x="1222" d="M31 -410l727 1946h434l-727 -1946h-434z" />
<glyph unicode="0" d="M53 715q0 358 202 551.5t566 193.5q240 0 412 -85t263 -246.5t91 -389.5q0 -367 -201.5 -566.5t-564.5 -199.5q-364 0 -566 193.5t-202 548.5zM582 719q0 -230 66.5 -331t172.5 -101t172 104.5t66 343.5q0 227 -64.5 325.5t-173.5 98.5q-240 0 -239 -440z" />
<glyph unicode="1" horiz-adv-x="1054" d="M41 901v195q170 23 261 58.5t143.5 99t99.5 180.5h393v-1434h-506v901h-391z" />
<glyph unicode="2" horiz-adv-x="1517" d="M51 0v188q0 146 47 247.5t147.5 178t272.5 146.5l191 78q125 49 168 93t43 105t-47.5 96t-145.5 35q-197 0 -240 -172l-399 64q39 178 207 289.5t493 111.5q225 0 373 -54t216.5 -145.5t68.5 -201.5q0 -129 -90 -227.5t-318 -196.5l-213 -86q-98 -41 -148 -73 t-68.5 -61.5t-20.5 -68.5h876v-346h-1413z" />
<glyph unicode="3" horiz-adv-x="1538" d="M27 354l428 109q29 -88 94 -134t184 -46t175.5 46t56.5 126q0 154 -222 153h-241v287h239q90 0 133.5 38t43.5 105q0 68 -48.5 107t-148.5 39q-104 0 -158.5 -42t-73.5 -124l-403 47q29 176 196 285.5t500 109.5q340 0 500 -111.5t160 -285.5q0 -115 -63.5 -197 t-172.5 -121q129 -37 208 -120.5t79 -212.5q0 -119 -72.5 -217.5t-235.5 -158t-419 -59.5q-645 0 -739 377z" />
<glyph unicode="4" horiz-adv-x="1642" d="M53 295v317l740 822h557v-824h239v-315h-239v-295h-500v295h-797zM426 610h424v473z" />
<glyph unicode="5" horiz-adv-x="1554" d="M39 354l457 109q55 -170 252 -170q115 0 174 52t59 140q0 86 -58.5 137.5t-168.5 51.5q-86 0 -142.5 -30t-79.5 -66l-430 65l62 791h1249v-347h-878l-21 -274q49 53 154.5 98t271.5 45q180 0 308 -58t194.5 -164.5t66.5 -246.5q0 -150 -78.5 -265.5t-243.5 -182 t-417 -66.5q-332 0 -507 103.5t-224 277.5z" />
<glyph unicode="6" horiz-adv-x="1613" d="M53 715q0 236 96.5 402.5t276.5 254.5t432 88q279 0 433.5 -103.5t195.5 -269.5l-414 -73q-25 80 -75 121t-138 41q-287 0 -297 -422q53 70 170 119t279 49q174 0 297 -56.5t187.5 -156t64.5 -230.5q0 -141 -80 -255.5t-243 -182.5t-400 -68q-377 0 -581 191.5 t-204 550.5zM596 461q0 -86 58.5 -137.5t170.5 -51.5q109 0 168.5 51.5t59.5 137.5q0 82 -59.5 132t-168.5 50q-113 0 -171 -50t-58 -132z" />
<glyph unicode="7" horiz-adv-x="1486" d="M55 1083v351h1381v-330q-236 -201 -367 -458t-158 -646h-546q28 377 199 635t437 448h-946z" />
<glyph unicode="8" horiz-adv-x="1597" d="M45 410q0 131 81 216t204 122q-104 39 -169 118.5t-65 192.5t72 203t228.5 144t402.5 54t402.5 -54t228 -144.5t71.5 -202.5q0 -113 -63.5 -193t-167.5 -118q123 -37 202.5 -122t79.5 -216q0 -123 -76.5 -221.5t-244.5 -157t-432 -58.5q-262 0 -431 58.5t-246 157 t-77 221.5zM547 438q0 -82 63.5 -131t188.5 -49t189.5 50t64.5 130q0 78 -64.5 128t-189.5 50t-188.5 -50t-63.5 -128zM580 1038q0 -71 56 -116t163 -45q106 0 162.5 45t56.5 116q0 70 -56.5 114t-162.5 44t-162.5 -44t-56.5 -114z" />
<glyph unicode="9" horiz-adv-x="1613" d="M53 954q0 141 80 256t242 182.5t399 67.5q379 0 583 -190.5t204 -546.5q0 -236 -97.5 -404.5t-282 -257t-442.5 -88.5q-284 0 -441 92.5t-212 239.5l416 121q35 -82 96 -124t158 -42q133 0 210.5 99.5t84.5 320.5q-53 -70 -170 -119t-279 -49q-174 0 -298 56.5 t-187.5 155.5t-63.5 230zM561 971q0 -82 59.5 -131t167.5 -49q111 0 170.5 49t59.5 131q0 84 -59.5 135t-170.5 51q-109 0 -168 -51t-59 -135z" />
<glyph unicode=":" horiz-adv-x="669" d="M86 0v420h498v-420h-498zM86 604v420h498v-420h-498z" />
<glyph unicode=";" horiz-adv-x="669" d="M86 0v420h498v-318q0 -156 -76 -271.5t-236 -205.5l-116 150q86 63 124.5 115.5t49.5 109.5h-244zM86 604v420h498v-420h-498z" />
<glyph unicode="&#x3c;" d="M197 379v389l1247 334v-332l-932 -197l932 -196v-332z" />
<glyph unicode="=" d="M197 180v307h1247v-307h-1247zM197 659v308h1247v-308h-1247z" />
<glyph unicode="&#x3e;" d="M197 45v332l929 196l-929 197v332l1247 -334v-389z" />
<glyph unicode="?" horiz-adv-x="1357" d="M16 1063q35 176 199 286.5t469 110.5q215 0 357.5 -55t210 -145.5t67.5 -200.5q0 -129 -76 -214t-254 -157q-94 -35 -122.5 -61.5t-35.5 -75.5h-393q0 90 18.5 146.5t59.5 94t119 80.5q98 55 130 92t32 89q0 51 -41 81.5t-123 30.5q-92 0 -143.5 -41t-71.5 -123zM387 0 v422h496v-422h-496z" />
<glyph unicode="@" horiz-adv-x="2324" d="M129 594q0 242 124 437.5t357.5 309t550.5 113.5t552 -112.5t358.5 -307t123.5 -432.5q0 -215 -129 -336t-348 -121q-170 0 -267 62.5t-126 163.5q-35 -96 -124 -157.5t-224 -61.5q-119 0 -211 52t-143.5 152.5t-51.5 239.5q0 211 112 328.5t292 117.5q125 0 210 -53 t120 -121q-8 74 -9 162h394v-506q0 -78 39.5 -120t111.5 -42q82 0 129 58.5t47 179.5q0 199 -101 356.5t-295 248.5t-460 91q-268 0 -460.5 -91t-293 -250.5t-100.5 -360.5q0 -199 99.5 -357.5t293 -249.5t461.5 -91q113 0 207 18t217 66l31 -162q-111 -43 -221.5 -61.5 t-233.5 -18.5q-317 0 -550.5 112.5t-357.5 307t-124 436.5zM1012 596q0 -102 36.5 -150.5t98.5 -48.5q68 0 114 57.5t46 157.5q0 92 -47.5 143.5t-114.5 51.5q-61 0 -97 -50t-36 -161z" />
<glyph unicode="A" horiz-adv-x="1636" d="M-16 0l518 1434h635l518 -1434h-543l-86 262h-506l-86 -262h-450zM612 543h322l-160 510z" />
<glyph unicode="B" horiz-adv-x="1677" d="M96 0v1434h981q250 0 381 -105.5t131 -271.5q0 -115 -62.5 -194t-170.5 -115q125 -37 201.5 -124t76.5 -229q0 -178 -130 -286.5t-382 -108.5h-1026zM592 289h369q82 0 127 43t45 117q0 70 -46.5 111.5t-125.5 41.5h-369v-313zM592 877h346q74 0 115 37.5t41 103.5 q0 61 -41 99t-115 38h-346v-278z" />
<glyph unicode="C" horiz-adv-x="1630" d="M51 721q0 356 217 547.5t627 191.5q303 0 471 -118.5t201 -323.5l-461 -39q-16 96 -64.5 144t-134.5 48q-123 0 -198.5 -105t-75.5 -329q0 -221 80 -328.5t209 -107.5q100 0 160.5 52.5t97.5 168.5l430 -123q-61 -193 -239.5 -309.5t-489.5 -116.5q-402 0 -616 193.5 t-214 554.5z" />
<glyph unicode="D" horiz-adv-x="1742" d="M96 0v1434h748q276 0 468.5 -84t291 -240t98.5 -369q0 -352 -221 -546.5t-637 -194.5h-748zM600 324h195q170 0 261 101t91 312q0 188 -90 282.5t-262 94.5h-195v-790z" />
<glyph unicode="E" horiz-adv-x="1495" d="M96 0v1434h1329v-320h-825v-219h672v-303h-672v-273h825v-319h-1329z" />
<glyph unicode="F" horiz-adv-x="1460" d="M96 0v1434h1299v-322h-795v-233h643v-320h-643v-559h-504z" />
<glyph unicode="G" horiz-adv-x="1720" d="M51 686q0 379 219 576.5t639 197.5q309 0 476 -117.5t202 -320.5l-461 -39q-37 188 -213 188q-139 0 -219 -107.5t-80 -336.5q0 -436 322 -436q125 0 201 57v158h-273v301h776v-807h-462q0 74 18 184q-51 -80 -169 -145.5t-318 -65.5q-306 0 -482 180.5t-176 532.5z" />
<glyph unicode="H" horiz-adv-x="1712" d="M96 0v1434h504v-525h510v525h506v-1434h-506v590h-510v-590h-504z" />
<glyph unicode="I" horiz-adv-x="700" d="M96 0v1434h508v-1434h-508z" />
<glyph unicode="J" horiz-adv-x="1490" d="M14 403l439 78q20 -90 79.5 -137t151.5 -47q100 0 153.5 54.5t53.5 152.5v930h514v-936q0 -240 -179 -382.5t-528 -142.5q-311 0 -479 113t-205 317z" />
<glyph unicode="K" horiz-adv-x="1667" d="M96 0v1434h508v-316q0 -100 -8 -284l489 600h512l-557 -631l643 -803h-614l-473 635q8 -184 8 -285v-350h-508z" />
<glyph unicode="L" horiz-adv-x="1359" d="M96 0v1434h514v-1080h711v-354h-1225z" />
<glyph unicode="M" horiz-adv-x="2267" d="M96 0v1434h727l322 -762h2l326 762h698v-1434h-502v1022h-2l-438 -1022h-305l-426 1022h-2v-1022h-400z" />
<glyph unicode="N" horiz-adv-x="1722" d="M96 0v1434h566l557 -756v756h407v-1434h-485l-637 874v-874h-408z" />
<glyph unicode="O" horiz-adv-x="1769" d="M51 713q0 360 216 553.5t618 193.5q399 0 616 -189.5t217 -529.5q0 -373 -216 -570.5t-617 -197.5q-400 0 -617 192.5t-217 547.5zM606 719q0 -221 76 -326.5t203 -105.5t202.5 108.5t75.5 341.5q0 217 -75.5 318.5t-202.5 101.5q-129 0 -204 -104.5t-75 -333.5z" />
<glyph unicode="P" horiz-adv-x="1669" d="M96 0v1434h981q182 0 307 -56.5t187.5 -156t62.5 -226.5q0 -135 -63.5 -238.5t-188.5 -161.5t-305 -58h-481v-537h-500zM596 834h340q86 0 131 43t45 114q0 66 -45 105t-131 39h-340v-301z" />
<glyph unicode="Q" horiz-adv-x="1769" d="M51 713q0 360 216 553.5t618 193.5q399 0 616 -189.5t217 -529.5q0 -313 -154.5 -503.5t-445.5 -243.5v-25q2 -51 34 -76.5t105 -25.5q41 0 80 4l-18 -274q-90 -12 -197 -13q-475 0 -475 377v33q-289 53 -442.5 237.5t-153.5 481.5zM606 719q0 -221 76 -326.5t203 -105.5 t202.5 108.5t75.5 341.5q0 217 -75.5 318.5t-202.5 101.5q-129 0 -204 -104.5t-75 -333.5z" />
<glyph unicode="R" horiz-adv-x="1703" d="M96 0v1434h985q182 0 307 -56.5t187.5 -154t62.5 -219.5q0 -141 -79.5 -233.5t-206.5 -135.5l340 -635h-568l-247 541h-281v-541h-500zM596 834h344q86 0 131 42t45 113q0 68 -45 107t-131 39h-344v-301z" />
<glyph unicode="S" horiz-adv-x="1593" d="M18 274l500 136q37 -76 109.5 -118t195.5 -42q219 0 219 129q0 47 -32.5 74.5t-108.5 40.5l-326 47q-264 37 -390 146.5t-126 303.5q0 215 180.5 342t565.5 127q324 0 481.5 -94t179.5 -244l-438 -35q-14 63 -63.5 94t-165.5 31q-225 0 -226 -118q0 -45 33 -72t113 -39 l303 -49q276 -43 405 -152.5t129 -312.5q0 -496 -761 -496q-340 0 -526.5 87t-250.5 214z" />
<glyph unicode="T" horiz-adv-x="1538" d="M41 1096v338h1456v-338h-471v-1096h-512v1096h-473z" />
<glyph unicode="U" horiz-adv-x="1671" d="M84 514v920h516v-889q0 -115 68.5 -178.5t199.5 -63.5q137 0 208 63.5t71 178.5v889h440v-920q0 -250 -182 -395.5t-545 -145.5q-395 0 -585.5 144.5t-190.5 396.5z" />
<glyph unicode="V" horiz-adv-x="1611" d="M-16 1434h546l316 -967l309 967h473l-530 -1434h-586z" />
<glyph unicode="W" horiz-adv-x="2504" d="M-14 1434h540l258 -942l306 942h411l314 -942l251 942h453l-469 -1434h-567l-256 782l-238 -782h-528z" />
<glyph unicode="X" horiz-adv-x="1689" d="M-8 0l520 735l-487 699h596l276 -461l277 461h493l-487 -701l520 -733h-621l-288 494l-306 -494h-493z" />
<glyph unicode="Y" horiz-adv-x="1562" d="M-31 1434h566l286 -564l295 564h475l-551 -930v-504h-516v494z" />
<glyph unicode="Z" horiz-adv-x="1581" d="M59 0v319l807 795h-760v320h1389v-320l-805 -795h832v-319h-1463z" />
<glyph unicode="[" horiz-adv-x="933" d="M96 -410v1946h768v-270h-321v-1405h321v-271h-768z" />
<glyph unicode="\" horiz-adv-x="1222" d="M31 1536h434l727 -1946h-434z" />
<glyph unicode="]" horiz-adv-x="933" d="M70 -139h321v1405h-321v270h768v-1946h-768v271z" />
<glyph unicode="^" horiz-adv-x="1583" d="M41 674l539 760h426l536 -760h-473l-276 428l-279 -428h-473z" />
<glyph unicode="_" horiz-adv-x="1206" d="M0 -92h1206v-291h-1206v291z" />
<glyph unicode="`" horiz-adv-x="1456" d="M375 1434h495l211 -293h-381z" />
<glyph unicode="a" horiz-adv-x="1359" d="M41 268q0 145 122 232.5t410 105.5l254 17v75q0 115 -125 115q-63 0 -104 -25.5t-68 -78.5l-397 57q55 133 192.5 209t407.5 76q293 0 422 -96.5t129 -274.5v-547q0 -70 35 -133h-467q-12 35 -12 80q0 43 8 90q-53 -76 -159.5 -135.5t-270.5 -59.5q-182 0 -279.5 78 t-97.5 215zM536.5 253q32.5 -28 98.5 -28q63 0 114.5 23.5t77.5 54.5v160l-172 -19q-151 -16 -151 -115q0 -48 32.5 -76z" />
<glyph unicode="b" horiz-adv-x="1433" d="M86 0v1434h457v-297q0 -150 -15 -277q45 78 143.5 134.5t241.5 56.5q141 0 249 -62.5t167.5 -182.5t59.5 -286q0 -172 -61.5 -296t-172.5 -187.5t-256 -63.5q-141 0 -234.5 52.5t-134.5 115.5q6 -92 7 -141h-451zM524 504q0 -131 60.5 -204t146.5 -73q162 0 162 289 q0 270 -160 270q-86 0 -147.5 -76.5t-61.5 -205.5z" />
<glyph unicode="c" horiz-adv-x="1370" d="M39 512q0 248 177 393.5t513 145.5q268 0 412.5 -96.5t165.5 -245.5l-406 -41q-18 137 -151 137q-92 0 -144.5 -66.5t-52.5 -208.5q0 -143 55.5 -210.5t153.5 -67.5q76 0 123 39t71 117l385 -84q-49 -154 -198.5 -252.5t-421.5 -98.5q-330 0 -506 145.5t-176 393.5z" />
<glyph unicode="d" horiz-adv-x="1433" d="M45 506q0 258 134 401.5t362 143.5q133 0 227 -45t135 -105q-12 172 -12 305v228h457v-1434h-453q0 68 12 174q-45 -80 -143 -140.5t-244 -60.5q-141 0 -248.5 62.5t-167 183.5t-59.5 287zM541 510q-1 -272 159 -272q86 0 147.5 76.5t61.5 205.5q0 131 -60.5 204 t-146.5 73q-162 0 -161 -287z" />
<glyph unicode="e" horiz-adv-x="1386" d="M39 512q0 164 78 285t229.5 187.5t368.5 66.5q303 0 461.5 -141.5t158.5 -393.5v-47h-798q8 -113 67.5 -170t161.5 -57q86 0 134 31.5t81 93.5l371 -68q-51 -133 -204 -229.5t-411 -96.5q-340 0 -519 144.5t-179 394.5zM543 635h362q-12 194 -168 194h-2q-82 0 -133 -49 t-59 -145z" />
<glyph unicode="f" horiz-adv-x="1034" d="M41 772v252h207v49q0 385 528 385q76 0 205 -12l37 -260q-57 6 -144 6q-90 0 -129.5 -32t-39.5 -99v-37h288v-252h-288v-772h-457v772h-207z" />
<glyph unicode="g" horiz-adv-x="1404" d="M-14 -211q0 143 229 172q-53 35 -89 91.5t-36 131.5q0 88 50 151.5t141 102.5q-123 43 -182.5 118t-59.5 167q0 145 145.5 236.5t462.5 91.5q260 0 406 -68q57 109 136 186.5t152 106.5l60 -334l-244 -24q86 -78 86 -191q0 -152 -144.5 -246t-451.5 -94q-145 0 -246 21 q-10 -27 -10 -62q0 -47 12 -84l537 2q229 0 340 -83t111 -226q0 -170 -157 -272.5t-507 -102.5h-152q-339 0 -464 56.5t-125 152.5zM332 -131q0 -64 53 -96.5t193 -32.5h149q160 0 226.5 32.5t66.5 84.5q0 75 -128 75h-3h-543q-14 -29 -14 -63zM506 723q0 -186 135 -186 q137 0 137 188q0 176 -137 176q-135 0 -135 -178z" />
<glyph unicode="h" horiz-adv-x="1388" d="M86 0v1434h457v-228q0 -145 -17 -329q76 68 187.5 121t255.5 53q164 0 254 -83t90 -231v-737h-459v659q0 59 -30.5 90t-90.5 31q-92 0 -190 -65v-715h-457z" />
<glyph unicode="i" horiz-adv-x="628" d="M86 0v1024h457v-1024h-457zM86 1153v281h456v-281h-456z" />
<glyph unicode="j" horiz-adv-x="626" d="M-141 -141q94 4 142 21.5t65.5 58.5t17.5 118v967h459v-948q0 -485 -596 -486h-39zM84 1153v281h456v-281h-456z" />
<glyph unicode="k" horiz-adv-x="1402" d="M86 0v1434h457v-637q0 -51 -4 -154l-2 -53h2l370 434h451l-416 -444l477 -580h-553l-329 446h-2l2 -49q4 -106 4 -170v-227h-457z" />
<glyph unicode="l" horiz-adv-x="628" d="M86 0v1434h457v-1434h-457z" />
<glyph unicode="m" horiz-adv-x="2099" d="M86 0v1024h455q0 -63 -13 -154q70 70 175.5 125.5t242.5 55.5q125 0 202 -51.5t109 -137.5q66 72 177.5 130.5t253.5 58.5q160 0 246.5 -82t86.5 -228v-741h-458v664q0 57 -30 86.5t-85 29.5q-72 0 -166 -59v-721h-459v664q0 57 -29.5 86.5t-82.5 29.5q-74 0 -168 -59 v-721h-457z" />
<glyph unicode="n" horiz-adv-x="1388" d="M86 0v1024h453q0 -61 -13 -158q72 70 184.5 127.5t258.5 57.5q164 0 254 -83t90 -231v-737h-459v659q0 59 -30.5 90t-90.5 31q-88 0 -190 -67v-713h-457z" />
<glyph unicode="o" horiz-adv-x="1445" d="M39 508q0 252 176 397.5t508 145.5q221 0 373.5 -65.5t230.5 -185.5t78 -280q0 -166 -78 -288.5t-231.5 -190.5t-372.5 -68t-372.5 66.5t-232.5 187.5t-79 281zM537 510q0 -148 50 -216.5t136 -68.5q186 0 186 295q0 287 -186 287t-186 -297z" />
<glyph unicode="p" horiz-adv-x="1433" d="M86 -410v1434h453q0 -66 -13 -174q45 80 143.5 140.5t243.5 60.5q141 0 249 -62.5t167.5 -183.5t59.5 -287q0 -258 -134.5 -401.5t-361.5 -143.5q-133 0 -227.5 45t-135.5 105q12 -172 13 -305v-228h-457zM524 504q0 -131 60.5 -204t146.5 -73q162 0 162 287 q0 272 -160 272q-86 0 -147.5 -76.5t-61.5 -205.5z" />
<glyph unicode="q" horiz-adv-x="1433" d="M45 504q0 172 61.5 296t172 187.5t256.5 63.5q141 0 234 -52.5t134 -115.5q-6 92 -6 141h451v-1434h-457v297q0 150 14 277q-45 -78 -143 -134.5t-242 -56.5q-141 0 -248.5 62.5t-167 182.5t-59.5 286zM541 508q-1 -270 159 -270q86 0 147.5 76.5t61.5 205.5 q0 131 -60.5 204t-146.5 73q-162 0 -161 -289z" />
<glyph unicode="r" horiz-adv-x="1001" d="M86 0v1024h455v-35q0 -106 -29 -264h4q82 111 193.5 203t201.5 121l60 -347l-162 -38l-266 -64v-600h-457z" />
<glyph unicode="s" horiz-adv-x="1282" d="M29 190l385 95q68 -113 239 -113q160 0 160 92q0 37 -25.5 57.5t-87.5 28.5l-243 33q-203 25 -302.5 102.5t-99.5 216.5q0 160 141.5 254.5t450.5 94.5q483 0 533 -232l-363 -31q-8 43 -45 64.5t-127 21.5q-162 0 -162 -83q0 -35 27 -56.5t88 -29.5l233 -31 q213 -27 311.5 -108t98.5 -226q0 -367 -602 -367q-504 0 -610 217z" />
<glyph unicode="t" horiz-adv-x="1071" d="M41 772v252h207v242q246 10 457 84v-326h301v-252h-301v-334q0 -129 155 -129q43 0 158 8l-27 -323q-135 -14 -246 -14q-268 0 -382.5 93t-114.5 279v420h-207z" />
<glyph unicode="u" horiz-adv-x="1388" d="M76 287v737h459v-659q0 -57 31.5 -89t88.5 -32q90 0 191 67v713h457v-1024h-453q0 63 12 158q-72 -70 -184.5 -127.5t-257.5 -57.5q-164 0 -254 83t-90 231z" />
<glyph unicode="v" horiz-adv-x="1275" d="M-12 1024h493l197 -631l201 631h409l-414 -1024h-473z" />
<glyph unicode="w" horiz-adv-x="1964" d="M-10 1024h483l178 -610l199 610h346l213 -610l168 610h397l-377 -1024h-446l-182 535l-168 -535h-430z" />
<glyph unicode="x" horiz-adv-x="1355" d="M-6 0l397 514l-371 510h529l170 -295l188 295h422l-368 -496l401 -528h-535l-194 313l-213 -313h-426z" />
<glyph unicode="y" horiz-adv-x="1275" d="M-12 1024h493l201 -645l197 645h409l-391 -973q-68 -164 -151.5 -263t-207.5 -148.5t-307 -49.5h-53l-57 328q145 0 202.5 18.5t88.5 57.5l4 6z" />
<glyph unicode="z" horiz-adv-x="1206" d="M49 0v264l539 496h-500v264h1049v-264l-539 -496h559v-264h-1108z" />
<glyph unicode="{" horiz-adv-x="1058" d="M70 416v295h61q74 0 112 38.5t38 108.5v270q0 201 110.5 304.5t331.5 103.5h266v-266h-133q-72 0 -105.5 -34t-33.5 -103v-236q0 -147 -62.5 -227t-185.5 -107q123 -27 185.5 -106.5t62.5 -227.5v-235q0 -137 139 -137h133v-267h-266q-221 0 -331.5 104.5t-110.5 305.5 v270q0 70 -38 108t-112 38h-61z" />
<glyph unicode="|" horiz-adv-x="641" d="M96 -410v1946h447v-1946h-447z" />
<glyph unicode="}" horiz-adv-x="1058" d="M70 -143h133q72 0 105.5 33.5t33.5 103.5v235q0 147 62.5 227.5t185.5 106.5q-123 27 -185.5 107t-62.5 227v236q0 137 -139 137h-133v266h266q221 0 331.5 -104.5t110.5 -305.5v-270q0 -68 39 -106.5t111 -38.5h61v-295h-61q-74 0 -112 -39t-38 -109v-270 q0 -201 -110.5 -304.5t-331.5 -103.5h-266v267z" />
<glyph unicode="~" d="M193 358q29 442 387 443q88 0 151.5 -21.5t149.5 -64.5q51 -27 85.5 -40t71.5 -13q57 0 89 30.5t47 100.5h274q-33 -444 -387 -445q-90 0 -154.5 22.5t-146.5 63.5q-53 29 -87 41t-69 12q-51 0 -81.5 -29.5t-49.5 -99.5h-280z" />
<glyph unicode="&#xa1;" horiz-adv-x="675" d="M90 -410l117 883h262l117 -883h-496zM90 602v422h496v-422h-496z" />
<glyph unicode="&#xa2;" d="M119 719q0 223 170 366.5t502 157.5v221h157v-221q242 -12 378 -104t167 -230l-393 -39q-12 53 -49 89t-103 45v-535q131 18 195 152l383 -82q-55 -137 -199.5 -233.5t-378.5 -112.5v-224h-157v221q-332 13 -502 157.5t-170 371.5zM614 727q0 -104 46.5 -169.5 t130.5 -86.5v526q-176 -41 -177 -270z" />
<glyph unicode="&#xa3;" d="M27 0v328q156 0 219 48t63 140q0 55 -14 98h-268v260h188q-27 94 -27 168q0 188 166 303t525 115q319 0 487 -109.5t199 -289.5l-426 -35q-20 74 -74.5 111t-161.5 37q-213 0 -213 -152q0 -63 37 -148h387v-260h-301q14 -53 14 -114q0 -57 -20 -129q111 -55 205 -56 q80 0 123 37t61 117l430 -115q-37 -182 -158.5 -281.5t-334.5 -99.5q-150 0 -262.5 47.5t-206.5 122.5q-174 -143 -527 -143h-110z" />
<glyph unicode="&#xa4;" d="M131 270l211 213q-55 102 -55 232q0 131 55 229l-211 213l231 217l218 -221q111 41 241 41q133 0 236 -39l225 223l227 -215l-213 -215q57 -100 58 -233q0 -127 -56 -232l211 -209l-229 -217l-215 219q-100 -43 -244 -43q-131 0 -241 41l-220 -221zM662 715 q0 -72 44 -117t115 -45q70 0 114 45t44 117q0 74 -44 116.5t-114 42.5t-114.5 -45t-44.5 -114z" />
<glyph unicode="&#xa5;" d="M-4 1434h573l291 -543l307 543h478l-385 -613h229v-250h-412v-108h412v-250h-412v-213h-512v213h-411v250h411v108h-411v250h225z" />
<glyph unicode="&#xa6;" horiz-adv-x="641" d="M96 410h447v-820h-447v820zM96 719v817h447v-817h-447z" />
<glyph unicode="&#xa7;" horiz-adv-x="1382" d="M41 551q0 100 63.5 172t180.5 125q-94 49 -138.5 115.5t-44.5 156.5q0 152 141.5 245t446.5 93q477 0 529 -231l-369 -33q-10 43 -45 63.5t-121 20.5t-121 -20.5t-35 -57.5q0 -35 25 -56.5t90 -35.5l197 -43q274 -66 386.5 -148.5t112.5 -209.5q0 -102 -61 -180 t-164 -124q86 -51 123 -112.5t37 -143.5q0 -170 -143.5 -271t-450.5 -101q-493 0 -604 217l385 100q63 -117 231 -117q156 0 156 86q0 35 -25.5 57.5t-91.5 35.5l-205 41q-264 57 -374.5 142t-110.5 214zM440 686q0 -51 37 -82t133 -55l197 -45l102 -25q27 53 27 96 q0 47 -36 77t-128 55l-213 51l-92 20q-27 -47 -27 -92z" />
<glyph unicode="&#xa8;" horiz-adv-x="1456" d="M260 1153v281h395v-281h-395zM799 1153v281h397v-281h-397z" />
<glyph unicode="&#xa9;" horiz-adv-x="2054" d="M129 715q0 217 109.5 394t313.5 280.5t474 103.5t474 -103.5t314.5 -280.5t110.5 -394q0 -215 -110.5 -392.5t-314.5 -279.5t-474 -102t-474 102t-313.5 279.5t-109.5 392.5zM287 715q0 -176 90 -319.5t257 -226.5t392 -83t393 83t259 226.5t91 319.5q0 180 -91 323.5 t-260 226.5t-392 83t-391 -83t-258 -226.5t-90 -323.5zM508 719q0 192 141.5 306t411.5 114q207 0 321.5 -74t137.5 -191l-320 -34q-16 100 -117 100q-72 0 -111.5 -50t-39.5 -159q0 -102 42 -153.5t111 -51.5q55 0 89 27t61 84l311 -64q-43 -123 -164.5 -200.5 t-330.5 -77.5q-266 0 -404.5 113.5t-138.5 310.5z" />
<glyph unicode="&#xaa;" horiz-adv-x="1060" d="M39 858q0 111 100.5 176.5t335.5 83.5l146 10v60q0 74 -80 74t-111 -72l-315 31q45 111 150.5 170t305.5 59q223 0 321.5 -78t98.5 -233v-377q0 -59 29 -105h-377q-12 29 -12 68q0 25 4 59q-49 -55 -129 -97t-195 -42q-131 0 -201.5 58.5t-70.5 154.5zM410 915 q0 -30 22.5 -48.5t65.5 -18.5q70 0 123 43v117l-101 -13q-59 -8 -84.5 -28.5t-25.5 -51.5z" />
<glyph unicode="&#xab;" horiz-adv-x="1673" d="M96 553l432 432h390l-347 -432l347 -432h-390zM768 553l420 432h389l-336 -432l336 -432h-389z" />
<glyph unicode="&#xac;" d="M197 416v315h1247v-690h-316v375h-931z" />
<glyph unicode="&#xad;" horiz-adv-x="993" d="M92 422v303h807v-303h-807z" />
<glyph unicode="&#xae;" horiz-adv-x="2054" d="M129 715q0 217 109.5 394t313.5 280.5t474 103.5t474 -103.5t314.5 -280.5t110.5 -394q0 -215 -110.5 -392.5t-314.5 -279.5t-474 -102t-474 102t-313.5 279.5t-109.5 392.5zM287 715q0 -176 90 -319.5t257 -226.5t392 -83t393 83t259 226.5t91 319.5q0 180 -91 323.5 t-260 226.5t-392 83t-391 -83t-258 -226.5t-90 -323.5zM592 322v800h569q152 0 237 -69.5t85 -175.5q0 -82 -50.5 -138.5t-125.5 -76.5l180 -340h-344l-117 280h-117v-280h-317zM909 774h158q41 0 65.5 24.5t24.5 61.5t-24.5 59.5t-65.5 22.5h-158v-168z" />
<glyph unicode="&#xaf;" horiz-adv-x="1456" d="M258 1159v227h940v-227h-940z" />
<glyph unicode="&#xb0;" horiz-adv-x="1091" d="M96 1038q0 119 56.5 212t158 146.5t234.5 53.5t235.5 -53.5t158.5 -146.5t56 -212q0 -121 -56 -216t-158.5 -148t-235.5 -53t-234.5 53t-158 148.5t-56.5 215.5zM383 1038q0 -75 45 -121.5t117 -46.5q74 0 119 46.5t45 121.5q0 72 -46.5 118t-117.5 46q-70 0 -116 -46 t-46 -118z" />
<glyph unicode="&#xb1;" d="M197 0v315h1247v-315h-1247zM197 702v314h467v282h315v-282h465v-314h-465v-278h-315v278h-467z" />
<glyph unicode="&#xb2;" horiz-adv-x="964" d="M47 820v92q0 121 60.5 185.5t209.5 107.5l127 34q66 20 87.5 38t21.5 40q0 23 -23.5 38.5t-74.5 15.5q-98 0 -123 -78l-262 39q55 213 430 213q213 0 310 -57.5t97 -143.5q0 -61 -54 -109.5t-189 -91.5l-138 -39q-49 -16 -67.5 -31.5t-20.5 -35.5h477v-217h-868z" />
<glyph unicode="&#xb3;" horiz-adv-x="970" d="M33 1008l274 51q18 -33 54 -52t106 -19q121 0 121 67q0 57 -92 57h-134v166h130q68 0 67 52q0 55 -108 55q-57 0 -85 -16.5t-36 -49.5l-271 27q25 88 126.5 143.5t310.5 55.5q211 0 308 -57.5t97 -143.5q0 -53 -33.5 -92t-91.5 -62q70 -20 112 -62t42 -104 q0 -90 -104.5 -151.5t-336.5 -61.5q-219 0 -322.5 51.5t-133.5 145.5z" />
<glyph unicode="&#xb4;" horiz-adv-x="1456" d="M375 1141l211 293h495l-327 -293h-379z" />
<glyph unicode="&#xb5;" horiz-adv-x="1396" d="M86 -410v1434h457v-659q0 -59 31.5 -90t91.5 -31q88 0 188 67v713h459v-891q0 -74 35 -133h-471q-12 35 -13 78q0 23 8 80q-57 -55 -149 -104.5t-172 -59.5l-8 2v-406h-457z" />
<glyph unicode="&#xb6;" horiz-adv-x="1812" d="M51 932q0 233 157 367.5t456 134.5h1052v-318h-151v-1526h-396v1526h-231v-1526h-393v842q-234 23 -364 156t-130 344z" />
<glyph unicode="&#xb7;" horiz-adv-x="669" d="M86 360v426h498v-426h-498z" />
<glyph unicode="&#xb8;" horiz-adv-x="1456" d="M395 -303l213 55q33 -47 99 -47q43 0 66.5 20.5t23.5 53.5q0 31 -22.5 50t-65.5 19q-29 0 -48.5 -9t-39.5 -25l-154 75l115 148h303l-94 -109l36 2q115 0 175.5 -45t60.5 -116q0 -84 -83 -141.5t-247 -57.5q-149 0 -231 38t-107 89z" />
<glyph unicode="&#xb9;" horiz-adv-x="669" d="M23 1244v124q86 10 136 29t81.5 50.5t66.5 88.5h287v-716h-348v424h-223z" />
<glyph unicode="&#xba;" horiz-adv-x="1124" d="M39 1047q0 182 135 292.5t389 110.5q252 0 386 -108.5t134 -286.5q0 -184 -135 -297t-385 -113q-168 0 -285.5 51.5t-178 142.5t-60.5 208zM438 1051q0 -105 34 -153t91 -48q123 0 123 207q0 104 -34 152t-89 48q-125 0 -125 -206z" />
<glyph unicode="&#xbb;" horiz-adv-x="1673" d="M96 121l336 432l-336 432h389l420 -432l-420 -432h-389zM756 121l346 432l-346 432h389l432 -432l-432 -432h-389z" />
<glyph unicode="&#xbc;" horiz-adv-x="1949" d="M-86 0l1555 1434h391l-1554 -1434h-392zM23 1141v124q86 10 136 29t81.5 50.5t66.5 88.5h287v-716h-348v424h-223zM948 129v200l432 387h391v-387h140v-200h-140v-129h-344v129h-479zM1206 329h221v199z" />
<glyph unicode="&#xbd;" horiz-adv-x="1986" d="M-86 0l1555 1434h391l-1554 -1434h-392zM23 1141v124q86 10 136 29t81.5 50.5t66.5 88.5h287v-716h-348v424h-223zM1067 0v92q0 121 60.5 185.5t209.5 107.5l127 34q66 20 87.5 38t21.5 40q0 23 -23.5 38.5t-74.5 15.5q-98 0 -123 -78l-262 39q55 213 430 213 q213 0 310 -57.5t97 -143.5q0 -61 -54 -109.5t-189 -91.5l-138 -39q-49 -16 -67.5 -31.5t-20.5 -35.5h477v-217h-868z" />
<glyph unicode="&#xbe;" horiz-adv-x="2170" d="M33 905l274 51q18 -33 54 -52t106 -19q121 0 121 67q0 57 -92 57h-134v166h130q68 0 67 52q0 55 -108 55q-57 0 -85 -16.5t-36 -49.5l-271 27q25 88 126.5 143.5t310.5 55.5q211 0 308 -57.5t97 -143.5q0 -53 -33.5 -92t-91.5 -62q70 -20 112 -62t42 -104 q0 -90 -104.5 -151.5t-336.5 -61.5q-219 0 -322.5 51.5t-133.5 145.5zM133 0l1555 1434h391l-1554 -1434h-392zM1169 129v200l432 387h391v-387h140v-200h-140v-129h-344v129h-479zM1427 329h221v199z" />
<glyph unicode="&#xbf;" horiz-adv-x="1351" d="M39 -35q0 129 75.5 214t254.5 157q94 35 122.5 61.5t34.5 75.5h394q0 -90 -18.5 -146.5t-59.5 -94t-119 -80.5q-98 -55 -130 -92t-32 -89q0 -51 41 -81.5t123 -30.5q92 0 143.5 41t71.5 123l401 -62q-35 -176 -198.5 -286.5t-468.5 -110.5q-215 0 -357.5 55t-210 145.5 t-67.5 200.5zM475 602v422h496v-422h-496z" />
<glyph unicode="&#xc0;" horiz-adv-x="1636" d="M-16 0l518 1434h635l518 -1434h-543l-86 262h-506l-86 -262h-450zM256 1837h510l254 -285h-397zM612 543h322l-160 510z" />
<glyph unicode="&#xc1;" horiz-adv-x="1636" d="M-16 0l518 1434h635l518 -1434h-543l-86 262h-506l-86 -262h-450zM612 543h322l-160 510zM618 1552l254 285h510l-369 -285h-395z" />
<glyph unicode="&#xc2;" horiz-adv-x="1636" d="M-16 0l518 1434h635l518 -1434h-543l-86 262h-506l-86 -262h-450zM270 1552l326 283h444l326 -283h-338l-211 109l-209 -109h-338zM612 543h322l-160 510z" />
<glyph unicode="&#xc3;" horiz-adv-x="1636" d="M-16 0l518 1434h635l518 -1434h-543l-86 262h-506l-86 -262h-450zM303 1556q25 285 305 285q70 0 123 -14.5t123 -42.5q49 -20 83 -29.5t68 -9.5q51 0 77 23.5t34 74.5l219 -24q-23 -287 -305 -287q-70 0 -123 14.5t-123 42.5q-51 20 -82.5 29.5t-66.5 9.5 q-49 0 -75 -21.5t-34 -72.5zM612 543h322l-160 510z" />
<glyph unicode="&#xc4;" horiz-adv-x="1636" d="M-16 0l518 1434h635l518 -1434h-543l-86 262h-506l-86 -262h-450zM336 1567v270h405v-270h-405zM612 543h322l-160 510zM895 1567v270h405v-270h-405z" />
<glyph unicode="&#xc5;" horiz-adv-x="1636" d="M-16 0l518 1434h635l518 -1434h-543l-86 262h-506l-86 -262h-450zM405 1759q0 59 43 110.5t136.5 83.5t232.5 32q141 0 234.5 -32t136.5 -83t43 -111q0 -94 -103.5 -160.5t-310.5 -66.5q-139 0 -232.5 31.5t-136.5 84t-43 111.5zM612 543h322l-160 510zM694 1759 q0 -39 32 -65.5t91 -26.5t92 26.5t33 65.5t-32 63.5t-93 24.5q-59 0 -91 -24.5t-32 -63.5z" />
<glyph unicode="&#xc6;" horiz-adv-x="2523" d="M-37 0l832 1434h1659v-326h-801v-211h647v-307h-647v-264h801v-326h-1303v272h-545l-151 -272h-492zM760 553h391v555h-84z" />
<glyph unicode="&#xc7;" horiz-adv-x="1630" d="M51 721q0 356 217 547.5t627 191.5q303 0 471 -118.5t201 -323.5l-461 -39q-16 96 -64.5 144t-134.5 48q-123 0 -198.5 -106.5t-75.5 -329.5q0 -219 80 -326.5t209 -107.5q100 0 160.5 52.5t97.5 168.5l430 -123q-53 -172 -205 -285.5t-412 -136.5l-41 -49l35 2 q115 0 175.5 -45t60.5 -116q0 -84 -82 -141.5t-248 -57.5q-150 0 -230.5 38t-107.5 89l213 55q18 -23 39.5 -35t58.5 -12q45 0 67.5 20.5t22.5 53.5t-22.5 51t-65.5 18q-47 0 -86 -34l-155 75l73 97q-315 41 -482 229t-167 506z" />
<glyph unicode="&#xc8;" horiz-adv-x="1495" d="M96 0v1434h1329v-320h-825v-219h672v-303h-672v-273h825v-319h-1329zM201 1837h510l254 -285h-397z" />
<glyph unicode="&#xc9;" horiz-adv-x="1495" d="M96 0v1434h1329v-320h-825v-219h672v-303h-672v-273h825v-319h-1329zM563 1552l254 285h510l-369 -285h-395z" />
<glyph unicode="&#xca;" horiz-adv-x="1495" d="M96 0v1434h1329v-320h-825v-219h672v-303h-672v-273h825v-319h-1329zM217 1552l326 283h444l326 -283h-338l-211 109l-209 -109h-338z" />
<glyph unicode="&#xcb;" horiz-adv-x="1495" d="M96 0v1434h1329v-320h-825v-219h672v-303h-672v-273h825v-319h-1329zM283 1567v270h405v-270h-405zM842 1567v270h405v-270h-405z" />
<glyph unicode="&#xcc;" horiz-adv-x="700" d="M-211 1837h510l254 -285h-397zM96 0v1434h508v-1434h-508z" />
<glyph unicode="&#xcd;" horiz-adv-x="700" d="M96 0v1434h508v-1434h-508zM151 1552l254 285h510l-369 -285h-395z" />
<glyph unicode="&#xce;" horiz-adv-x="700" d="M-197 1552l326 283h444l326 -283h-338l-211 109l-209 -109h-338zM96 0v1434h508v-1434h-508z" />
<glyph unicode="&#xcf;" horiz-adv-x="700" d="M-131 1567v270h405v-270h-405zM96 0v1434h508v-1434h-508zM428 1567v270h405v-270h-405z" />
<glyph unicode="&#xd0;" horiz-adv-x="1867" d="M23 592v315h198v527h746q276 0 468.5 -84t291 -240t98.5 -369q0 -352 -221.5 -546.5t-636.5 -194.5h-746v592h-198zM723 322h197q170 0 261 102t91 313q0 190 -90 284.5t-262 94.5h-197v-209h248v-315h-248v-270z" />
<glyph unicode="&#xd1;" horiz-adv-x="1722" d="M96 0v1434h566l557 -756v756h407v-1434h-485l-637 874v-874h-408zM346 1556q25 285 305 285q70 0 123 -14.5t123 -42.5q49 -20 83 -29.5t68 -9.5q51 0 77 23.5t34 74.5l219 -24q-23 -287 -305 -287q-70 0 -123 14.5t-123 42.5q-51 20 -82.5 29.5t-66.5 9.5 q-49 0 -75 -21.5t-34 -72.5z" />
<glyph unicode="&#xd2;" horiz-adv-x="1769" d="M51 713q0 360 216 553.5t618 193.5q399 0 616 -189.5t217 -529.5q0 -373 -216 -570.5t-617 -197.5q-400 0 -617 192.5t-217 547.5zM321 1837h510l254 -285h-397zM606 719q0 -221 76 -326.5t203 -105.5t202.5 108.5t75.5 341.5q0 217 -75.5 318.5t-202.5 101.5 q-129 0 -204 -104.5t-75 -333.5z" />
<glyph unicode="&#xd3;" horiz-adv-x="1769" d="M51 713q0 360 216 553.5t618 193.5q399 0 616 -189.5t217 -529.5q0 -373 -216 -570.5t-617 -197.5q-400 0 -617 192.5t-217 547.5zM606 719q0 -221 76 -326.5t203 -105.5t202.5 108.5t75.5 341.5q0 217 -75.5 318.5t-202.5 101.5q-129 0 -204 -104.5t-75 -333.5z M684 1552l254 285h510l-369 -285h-395z" />
<glyph unicode="&#xd4;" horiz-adv-x="1769" d="M51 713q0 360 216 553.5t618 193.5q399 0 616 -189.5t217 -529.5q0 -373 -216 -570.5t-617 -197.5q-400 0 -617 192.5t-217 547.5zM336 1552l326 283h444l326 -283h-338l-211 109l-209 -109h-338zM606 719q0 -221 76 -326.5t203 -105.5t202.5 108.5t75.5 341.5 q0 217 -75.5 318.5t-202.5 101.5q-129 0 -204 -104.5t-75 -333.5z" />
<glyph unicode="&#xd5;" horiz-adv-x="1769" d="M51 713q0 360 216 553.5t618 193.5q399 0 616 -189.5t217 -529.5q0 -373 -216 -570.5t-617 -197.5q-400 0 -617 192.5t-217 547.5zM369 1556q25 285 305 285q70 0 123 -14.5t123 -42.5q49 -20 83 -29.5t68 -9.5q51 0 77 23.5t34 74.5l219 -24q-23 -287 -305 -287 q-70 0 -123 14.5t-123 42.5q-51 20 -82.5 29.5t-66.5 9.5q-49 0 -75 -21.5t-34 -72.5zM606 719q0 -221 76 -326.5t203 -105.5t202.5 108.5t75.5 341.5q0 217 -75.5 318.5t-202.5 101.5q-129 0 -204 -104.5t-75 -333.5z" />
<glyph unicode="&#xd6;" horiz-adv-x="1769" d="M51 713q0 360 216 553.5t618 193.5q399 0 616 -189.5t217 -529.5q0 -373 -216 -570.5t-617 -197.5q-400 0 -617 192.5t-217 547.5zM402 1567v270h405v-270h-405zM606 719q0 -221 76 -326.5t203 -105.5t202.5 108.5t75.5 341.5q0 217 -75.5 318.5t-202.5 101.5 q-129 0 -204 -104.5t-75 -333.5zM961 1567v270h405v-270h-405z" />
<glyph unicode="&#xd7;" d="M213 190l387 385l-385 381l219 220l385 -383l389 385l219 -222l-385 -385l385 -383l-219 -217l-387 383l-385 -383z" />
<glyph unicode="&#xd8;" horiz-adv-x="1769" d="M51 713q0 360 216 553.5t618 193.5q184 0 319 -39l74 105h330l-154 -219q129 -92 196.5 -234.5t67.5 -331.5q0 -373 -216 -570.5t-617 -197.5q-182 0 -320 39l-73 -104h-330l153 221q-264 191 -264 584zM600 719q0 -94 18 -160l388 580q-51 27 -121 26 q-133 0 -209 -106.5t-76 -339.5zM772 305q43 -24 113 -24q131 0 207.5 108.5t76.5 345.5q0 78 -16 137z" />
<glyph unicode="&#xd9;" horiz-adv-x="1671" d="M84 514v920h516v-889q0 -115 68.5 -178.5t199.5 -63.5q137 0 208 63.5t71 178.5v889h440v-920q0 -250 -182 -395.5t-545 -145.5q-395 0 -585.5 144.5t-190.5 396.5zM274 1837h510l254 -285h-397z" />
<glyph unicode="&#xda;" horiz-adv-x="1671" d="M84 514v920h516v-889q0 -115 68.5 -178.5t199.5 -63.5q137 0 208 63.5t71 178.5v889h440v-920q0 -250 -182 -395.5t-545 -145.5q-395 0 -585.5 144.5t-190.5 396.5zM637 1552l254 285h510l-369 -285h-395z" />
<glyph unicode="&#xdb;" horiz-adv-x="1671" d="M84 514v920h516v-889q0 -115 68.5 -178.5t199.5 -63.5q137 0 208 63.5t71 178.5v889h440v-920q0 -250 -182 -395.5t-545 -145.5q-395 0 -585.5 144.5t-190.5 396.5zM291 1552l326 283h444l326 -283h-338l-211 109l-209 -109h-338z" />
<glyph unicode="&#xdc;" horiz-adv-x="1671" d="M84 514v920h516v-889q0 -115 68.5 -178.5t199.5 -63.5q137 0 208 63.5t71 178.5v889h440v-920q0 -250 -182 -395.5t-545 -145.5q-395 0 -585.5 144.5t-190.5 396.5zM357 1567v270h405v-270h-405zM916 1567v270h405v-270h-405z" />
<glyph unicode="&#xdd;" horiz-adv-x="1562" d="M-31 1434h566l286 -564l295 564h475l-551 -930v-504h-516v494zM612 1552l254 285h510l-369 -285h-395z" />
<glyph unicode="&#xde;" horiz-adv-x="1677" d="M96 0v1434h500v-258h479q182 0 308 -57.5t188.5 -157t62.5 -224.5q0 -135 -63.5 -238.5t-188.5 -161.5t-307 -58h-479v-279h-500zM596 575h340q86 0 131 43.5t45 114.5q0 66 -45 105t-131 39h-340v-302z" />
<glyph unicode="&#xdf;" horiz-adv-x="1486" d="M86 0v934q0 256 166 391t524 135q213 0 350.5 -49t201 -130t63.5 -179q0 -104 -62.5 -185t-167.5 -129q127 -49 205 -140t78 -228q0 -197 -149.5 -317.5t-442.5 -120.5q-86 0 -158 10l-26 297h51q131 0 190.5 47t59.5 137q0 176 -242 176h-51v277h61q186 0 187 145 q0 66 -43 102.5t-131 36.5q-104 0 -155.5 -52t-51.5 -163v-995h-457z" />
<glyph unicode="&#xe0;" horiz-adv-x="1359" d="M41 268q0 145 122 232.5t410 105.5l254 17v75q0 115 -125 115q-63 0 -104 -25.5t-68 -78.5l-397 57q55 133 192.5 209t407.5 76q293 0 422 -96.5t129 -274.5v-547q0 -70 35 -133h-467q-12 35 -12 80q0 43 8 90q-53 -76 -159.5 -135.5t-270.5 -59.5q-182 0 -279.5 78 t-97.5 215zM215 1434h495l211 -293h-381zM504 328q0 -47 32.5 -75t98.5 -28q63 0 114.5 23.5t77.5 54.5v160l-172 -19q-152 -16 -151 -116z" />
<glyph unicode="&#xe1;" horiz-adv-x="1359" d="M41 268q0 145 122 232.5t410 105.5l254 17v75q0 115 -125 115q-63 0 -104 -25.5t-68 -78.5l-397 57q55 133 192.5 209t407.5 76q293 0 422 -96.5t129 -274.5v-547q0 -70 35 -133h-467q-12 35 -12 80q0 43 8 90q-53 -76 -159.5 -135.5t-270.5 -59.5q-182 0 -279.5 78 t-97.5 215zM504 328q0 -47 32.5 -75t98.5 -28q63 0 114.5 23.5t77.5 54.5v160l-172 -19q-152 -16 -151 -116zM543 1141l211 293h495l-327 -293h-379z" />
<glyph unicode="&#xe2;" horiz-adv-x="1359" d="M41 268q0 145 122 232.5t410 105.5l254 17v75q0 115 -125 115q-63 0 -104 -25.5t-68 -78.5l-397 57q55 133 192.5 209t407.5 76q293 0 422 -96.5t129 -274.5v-547q0 -70 35 -133h-467q-12 35 -12 80q0 43 8 90q-53 -76 -159.5 -135.5t-270.5 -59.5q-182 0 -279.5 78 t-97.5 215zM221 1141l309 293h404l307 -293h-338l-172 108l-170 -108h-340zM504 328q0 -47 32.5 -75t98.5 -28q63 0 114.5 23.5t77.5 54.5v160l-172 -19q-152 -16 -151 -116z" />
<glyph unicode="&#xe3;" horiz-adv-x="1359" d="M41 268q0 145 122 232.5t410 105.5l254 17v75q0 115 -125 115q-63 0 -104 -25.5t-68 -78.5l-397 57q55 133 192.5 209t407.5 76q293 0 422 -96.5t129 -274.5v-547q0 -70 35 -133h-467q-12 35 -12 80q0 43 8 90q-53 -76 -159.5 -135.5t-270.5 -59.5q-182 0 -279.5 78 t-97.5 215zM215 1145q25 297 305 297q70 0 123 -14.5t123 -43.5q49 -20 83 -29t68 -9q51 0 78 22.5t33 73.5l219 -23q-23 -299 -303 -299q-72 0 -125 14.5t-123 43.5q-51 20 -82.5 29.5t-66.5 9.5q-49 0 -74 -21.5t-33 -73.5zM504 328q0 -47 32.5 -75t98.5 -28 q63 0 114.5 23.5t77.5 54.5v160l-172 -19q-152 -16 -151 -116z" />
<glyph unicode="&#xe4;" horiz-adv-x="1359" d="M41 268q0 145 122 232.5t410 105.5l254 17v75q0 115 -125 115q-63 0 -104 -25.5t-68 -78.5l-397 57q55 133 192.5 209t407.5 76q293 0 422 -96.5t129 -274.5v-547q0 -70 35 -133h-467q-12 35 -12 80q0 43 8 90q-53 -76 -159.5 -135.5t-270.5 -59.5q-182 0 -279.5 78 t-97.5 215zM264 1153v281h395v-281h-395zM504 328q0 -47 32.5 -75t98.5 -28q63 0 114.5 23.5t77.5 54.5v160l-172 -19q-152 -16 -151 -116zM803 1153v281h397v-281h-397z" />
<glyph unicode="&#xe5;" horiz-adv-x="1359" d="M41 268q0 145 122 232.5t410 105.5l254 17v75q0 115 -125 115q-63 0 -104 -25.5t-68 -78.5l-397 57q55 133 192.5 209t407.5 76q293 0 422 -96.5t129 -274.5v-547q0 -70 35 -133h-467q-12 35 -12 80q0 43 8 90q-53 -76 -159.5 -135.5t-270.5 -59.5q-182 0 -279.5 78 t-97.5 215zM340 1358q0 100 100.5 169.5t290.5 69.5q193 0 292 -68.5t99 -170.5q0 -100 -100 -169t-291 -69q-129 0 -217 33t-131 87t-43 118zM504 328q0 -47 32.5 -75t98.5 -28q63 0 114.5 23.5t77.5 54.5v160l-172 -19q-152 -16 -151 -116zM612 1358q0 -43 32 -72t87 -29 q57 0 89 29t32 72q0 47 -31 73.5t-90 26.5q-57 0 -88 -26.5t-31 -73.5z" />
<glyph unicode="&#xe6;" horiz-adv-x="2152" d="M41 274q0 143 123 228.5t409 103.5l254 17v75q0 55 -31.5 85t-93.5 30q-63 0 -104 -25.5t-68 -78.5l-397 57q55 133 191.5 209t402.5 76q244 0 379 -78q160 78 381 78q297 0 455.5 -141.5t158.5 -393.5v-47h-798q10 -113 69.5 -171t161.5 -58q84 0 132 32.5t81 94.5 l371 -68q-53 -135 -204 -230.5t-411 -95.5q-207 0 -351 57.5t-222 157.5q-170 -213 -484 -213q-198 0 -301.5 80t-103.5 219zM504 330q0 -49 34.5 -77t104.5 -28q121 0 217 88q-25 61 -33 150l-174 -19q-150 -14 -149 -114zM1311 635h360q-6 98 -50 146t-120 48 q-82 0 -132 -49t-58 -145z" />
<glyph unicode="&#xe7;" horiz-adv-x="1370" d="M39 512q0 248 177 393.5t513 145.5q268 0 412.5 -96.5t165.5 -245.5l-406 -41q-18 137 -151 137q-92 0 -144.5 -66.5t-52.5 -208.5q0 -143 55.5 -210.5t153.5 -67.5q76 0 123 39t71 117l385 -84q-41 -131 -155.5 -222.5t-317.5 -117.5l-45 -56l37 2q115 0 175.5 -45 t60.5 -116q0 -84 -83 -141.5t-249 -57.5q-150 0 -230.5 38t-107.5 89l213 55q18 -23 39.5 -35t60.5 -12q43 0 66.5 20.5t23.5 53.5q0 31 -22.5 50t-65.5 19q-49 0 -88 -34l-155 75l71 93q-258 33 -394 173t-136 357z" />
<glyph unicode="&#xe8;" horiz-adv-x="1386" d="M39 512q0 164 78 285t229.5 187.5t368.5 66.5q303 0 461.5 -141.5t158.5 -393.5v-47h-798q8 -113 67.5 -170t161.5 -57q86 0 134 31.5t81 93.5l371 -68q-51 -133 -204 -229.5t-411 -96.5q-340 0 -519 144.5t-179 394.5zM205 1434h495l211 -293h-381zM543 635h362 q-12 195 -170 194q-82 0 -133 -49t-59 -145z" />
<glyph unicode="&#xe9;" horiz-adv-x="1386" d="M39 512q0 164 78 285t229.5 187.5t368.5 66.5q303 0 461.5 -141.5t158.5 -393.5v-47h-798q8 -113 67.5 -170t161.5 -57q86 0 134 31.5t81 93.5l371 -68q-51 -133 -204 -229.5t-411 -96.5q-340 0 -519 144.5t-179 394.5zM531 1141l211 293h495l-327 -293h-379zM543 635 h362q-12 195 -170 194q-82 0 -133 -49t-59 -145z" />
<glyph unicode="&#xea;" horiz-adv-x="1386" d="M39 512q0 164 78 285t229.5 187.5t368.5 66.5q303 0 461.5 -141.5t158.5 -393.5v-47h-798q8 -113 67.5 -170t161.5 -57q86 0 134 31.5t81 93.5l371 -68q-51 -133 -204 -229.5t-411 -96.5q-340 0 -519 144.5t-179 394.5zM211 1141l309 293h404l307 -293h-338l-172 108 l-170 -108h-340zM543 635h362q-12 195 -170 194q-82 0 -133 -49t-59 -145z" />
<glyph unicode="&#xeb;" horiz-adv-x="1386" d="M39 512q0 164 78 285t229.5 187.5t368.5 66.5q303 0 461.5 -141.5t158.5 -393.5v-47h-798q8 -113 67.5 -170t161.5 -57q86 0 134 31.5t81 93.5l371 -68q-51 -133 -204 -229.5t-411 -96.5q-340 0 -519 144.5t-179 394.5zM254 1153v281h395v-281h-395zM543 635h362 q-12 195 -170 194q-82 0 -133 -49t-59 -145zM793 1153v281h397v-281h-397z" />
<glyph unicode="&#xec;" horiz-adv-x="628" d="M-203 1434h495l211 -293h-381zM86 0v1024h457v-1024h-457z" />
<glyph unicode="&#xed;" horiz-adv-x="628" d="M86 0v1024h457v-1024h-457zM123 1141l211 293h495l-327 -293h-379z" />
<glyph unicode="&#xee;" horiz-adv-x="628" d="M-197 1141l309 293h404l307 -293h-338l-172 108l-170 -108h-340zM86 0v1024h457v-1024h-457z" />
<glyph unicode="&#xef;" horiz-adv-x="628" d="M-154 1153v281h395v-281h-395zM86 0v1024h457v-1024h-457zM385 1153v281h397v-281h-397z" />
<glyph unicode="&#xf0;" horiz-adv-x="1458" d="M31 489q0 213 140 335t394 122q195 0 344 -88q-72 125 -188 240l-311 -90l-56 153l228 68q-90 76 -133 110l518 111q39 -29 86 -74l252 74l55 -154l-184 -55q104 -129 168.5 -280.5t64.5 -337.5q0 -311 -180 -480.5t-529 -169.5q-219 0 -369.5 65.5t-225 182.5t-74.5 268 zM526 481q0 -133 49.5 -197.5t135.5 -64.5t136 62.5t50 193.5q0 129 -50 191.5t-138 62.5q-84 0 -133.5 -61.5t-49.5 -186.5z" />
<glyph unicode="&#xf1;" horiz-adv-x="1388" d="M86 0v1024h453q0 -61 -13 -158q72 70 184.5 127.5t258.5 57.5q164 0 254 -83t90 -231v-737h-459v659q0 59 -30.5 90t-90.5 31q-88 0 -190 -67v-713h-457zM186 1145q25 297 305 297q70 0 123 -14.5t123 -43.5q49 -20 83 -29t68 -9q51 0 78 22.5t33 73.5l219 -23 q-23 -299 -303 -299q-72 0 -125 14.5t-123 43.5q-51 20 -82.5 29.5t-66.5 9.5q-49 0 -74 -21.5t-33 -73.5z" />
<glyph unicode="&#xf2;" horiz-adv-x="1445" d="M39 508q0 252 176 397.5t508 145.5q221 0 373.5 -65.5t230.5 -185.5t78 -280q0 -166 -78 -288.5t-231.5 -190.5t-372.5 -68t-372.5 66.5t-232.5 187.5t-79 281zM207 1434h495l211 -293h-381zM537 510q0 -148 50 -216.5t136 -68.5q186 0 186 295q0 287 -186 287t-186 -297 z" />
<glyph unicode="&#xf3;" horiz-adv-x="1445" d="M39 508q0 252 176 397.5t508 145.5q221 0 373.5 -65.5t230.5 -185.5t78 -280q0 -166 -78 -288.5t-231.5 -190.5t-372.5 -68t-372.5 66.5t-232.5 187.5t-79 281zM533 1141l211 293h495l-327 -293h-379zM537 510q0 -148 50 -216.5t136 -68.5q186 0 186 295q0 287 -186 287 t-186 -297z" />
<glyph unicode="&#xf4;" horiz-adv-x="1445" d="M39 508q0 252 176 397.5t508 145.5q221 0 373.5 -65.5t230.5 -185.5t78 -280q0 -166 -78 -288.5t-231.5 -190.5t-372.5 -68t-372.5 66.5t-232.5 187.5t-79 281zM211 1141l309 293h404l307 -293h-338l-172 108l-170 -108h-340zM537 510q0 -148 50 -216.5t136 -68.5 q186 0 186 295q0 287 -186 287t-186 -297z" />
<glyph unicode="&#xf5;" horiz-adv-x="1445" d="M39 508q0 252 176 397.5t508 145.5q221 0 373.5 -65.5t230.5 -185.5t78 -280q0 -166 -78 -288.5t-231.5 -190.5t-372.5 -68t-372.5 66.5t-232.5 187.5t-79 281zM205 1145q25 297 305 297q70 0 123 -14.5t123 -43.5q49 -20 83 -29t68 -9q51 0 78 22.5t33 73.5l219 -23 q-23 -299 -303 -299q-72 0 -125 14.5t-123 43.5q-51 20 -82.5 29.5t-66.5 9.5q-49 0 -74 -21.5t-33 -73.5zM537 510q0 -148 50 -216.5t136 -68.5q186 0 186 295q0 287 -186 287t-186 -297z" />
<glyph unicode="&#xf6;" horiz-adv-x="1445" d="M39 508q0 252 176 397.5t508 145.5q221 0 373.5 -65.5t230.5 -185.5t78 -280q0 -166 -78 -288.5t-231.5 -190.5t-372.5 -68t-372.5 66.5t-232.5 187.5t-79 281zM254 1153v281h395v-281h-395zM537 510q0 -148 50 -216.5t136 -68.5q186 0 186 295q0 287 -186 287t-186 -297 zM793 1153v281h397v-281h-397z" />
<glyph unicode="&#xf7;" d="M197 416v315h1247v-315h-1247zM602 -61v354h436v-354h-436zM602 854v354h436v-354h-436z" />
<glyph unicode="&#xf8;" horiz-adv-x="1445" d="M39 508q0 252 176 397.5t508 145.5q117 0 215 -19l57 84h273l-113 -162q250 -137 250 -434q0 -166 -78 -288.5t-231.5 -190.5t-372.5 -68q-123 0 -213 21l-59 -86h-273l113 164q-125 68 -188.5 179t-63.5 257zM516 510q0 -57 10 -98l258 397q-25 8 -61 8 q-98 0 -152.5 -71.5t-54.5 -235.5zM666 223q23 -8 57 -8q205 0 205 307q0 61 -8 92z" />
<glyph unicode="&#xf9;" horiz-adv-x="1388" d="M76 287v737h459v-659q0 -57 31.5 -89t88.5 -32q90 0 191 67v713h457v-1024h-453q0 63 12 158q-72 -70 -184.5 -127.5t-257.5 -57.5q-164 0 -254 83t-90 231zM176 1434h495l211 -293h-381z" />
<glyph unicode="&#xfa;" horiz-adv-x="1388" d="M76 287v737h459v-659q0 -57 31.5 -89t88.5 -32q90 0 191 67v713h457v-1024h-453q0 63 12 158q-72 -70 -184.5 -127.5t-257.5 -57.5q-164 0 -254 83t-90 231zM502 1141l211 293h495l-327 -293h-379z" />
<glyph unicode="&#xfb;" horiz-adv-x="1388" d="M76 287v737h459v-659q0 -57 31.5 -89t88.5 -32q90 0 191 67v713h457v-1024h-453q0 63 12 158q-72 -70 -184.5 -127.5t-257.5 -57.5q-164 0 -254 83t-90 231zM180 1141l309 293h404l307 -293h-338l-172 108l-170 -108h-340z" />
<glyph unicode="&#xfc;" horiz-adv-x="1388" d="M76 287v737h459v-659q0 -57 31.5 -89t88.5 -32q90 0 191 67v713h457v-1024h-453q0 63 12 158q-72 -70 -184.5 -127.5t-257.5 -57.5q-164 0 -254 83t-90 231zM223 1153v281h395v-281h-395zM762 1153v281h397v-281h-397z" />
<glyph unicode="&#xfd;" horiz-adv-x="1275" d="M-12 1024h493l201 -645l197 645h409l-391 -973q-68 -164 -151.5 -263t-207.5 -148.5t-307 -49.5h-53l-57 328q145 0 202.5 18.5t88.5 57.5l4 6zM467 1141l211 293h495l-327 -293h-379z" />
<glyph unicode="&#xfe;" horiz-adv-x="1433" d="M86 -410v1844h457v-297q0 -150 -15 -277q45 78 143.5 134.5t241.5 56.5q141 0 249 -62.5t167.5 -183.5t59.5 -287q0 -258 -134.5 -401.5t-361.5 -143.5q-133 0 -227.5 45t-135.5 105q12 -172 13 -305v-228h-457zM524 504q0 -131 60.5 -204t146.5 -73q162 0 162 289 q0 270 -160 270q-86 0 -147.5 -76.5t-61.5 -205.5z" />
<glyph unicode="&#xff;" horiz-adv-x="1275" d="M-12 1024h493l201 -645l197 645h409l-391 -973q-68 -164 -151.5 -263t-207.5 -148.5t-307 -49.5h-53l-57 328q145 0 202.5 18.5t88.5 57.5l4 6zM190 1153v281h395v-281h-395zM729 1153v281h397v-281h-397z" />
<glyph unicode="&#x152;" horiz-adv-x="2523" d="M51 717q0 338 220.5 527.5t635.5 189.5h1547v-322h-803v-217h649v-303h-649v-270h803v-322h-1547q-413 0 -634.5 189.5t-221.5 527.5zM604 719q0 -201 91 -299t263 -98h191v790h-191q-172 0 -263 -98.5t-91 -294.5z" />
<glyph unicode="&#x153;" horiz-adv-x="2246" d="M39 508q0 252 175 397.5t507 145.5q266 0 432 -103q170 102 426 103q299 0 457.5 -141.5t158.5 -393.5v-47h-798q10 -113 69.5 -171t161.5 -58q84 0 132 32.5t81 94.5l371 -68q-53 -135 -203.5 -230.5t-411.5 -95.5q-272 0 -446 103q-172 -102 -430 -103 q-219 0 -372.5 66.5t-231.5 187.5t-78 281zM537 510q0 -148 49 -216.5t135 -68.5q186 0 186 295q0 287 -186 287q-184 0 -184 -297zM1405 635h360q-6 98 -50 146t-120 48q-82 0 -132 -49t-58 -145z" />
<glyph unicode="&#x178;" horiz-adv-x="1562" d="M-31 1434h566l286 -564l295 564h475l-551 -930v-504h-516v494zM332 1567v270h405v-270h-405zM891 1567v270h405v-270h-405z" />
<glyph unicode="&#x2c6;" horiz-adv-x="1456" d="M217 1141l309 293h404l307 -293h-338l-172 108l-170 -108h-340z" />
<glyph unicode="&#x2dc;" horiz-adv-x="1456" d="M211 1145q25 297 305 297q70 0 123 -14.5t123 -43.5q49 -20 83 -29t68 -9q51 0 78 22.5t33 73.5l219 -23q-23 -299 -303 -299q-72 0 -125 14.5t-123 43.5q-51 20 -82.5 29.5t-66.5 9.5q-49 0 -74 -21.5t-33 -73.5z" />
<glyph unicode="&#x2000;" horiz-adv-x="992" />
<glyph unicode="&#x2001;" horiz-adv-x="1985" />
<glyph unicode="&#x2002;" horiz-adv-x="992" />
<glyph unicode="&#x2003;" horiz-adv-x="1985" />
<glyph unicode="&#x2004;" horiz-adv-x="661" />
<glyph unicode="&#x2005;" horiz-adv-x="496" />
<glyph unicode="&#x2006;" horiz-adv-x="330" />
<glyph unicode="&#x2007;" horiz-adv-x="330" />
<glyph unicode="&#x2008;" horiz-adv-x="248" />
<glyph unicode="&#x2009;" horiz-adv-x="397" />
<glyph unicode="&#x200a;" horiz-adv-x="110" />
<glyph unicode="&#x2010;" horiz-adv-x="993" d="M92 422v303h807v-303h-807z" />
<glyph unicode="&#x2011;" horiz-adv-x="993" d="M92 422v303h807v-303h-807z" />
<glyph unicode="&#x2012;" horiz-adv-x="993" d="M92 422v303h807v-303h-807z" />
<glyph unicode="&#x2013;" horiz-adv-x="1398" d="M92 422v303h1213v-303h-1213z" />
<glyph unicode="&#x2014;" horiz-adv-x="2099" d="M92 422v303h1915v-303h-1915z" />
<glyph unicode="&#x2018;" horiz-adv-x="669" d="M86 733v287q0 154 77 269.5t236 205.5l115 -149q-88 -66 -127 -117t-47 -105h244v-391h-498z" />
<glyph unicode="&#x2019;" horiz-adv-x="669" d="M86 1042v392h498v-287q0 -154 -77 -269.5t-237 -205.5l-114 149q88 66 127 117t47 104h-244z" />
<glyph unicode="&#x201a;" horiz-adv-x="669" d="M86 0v426h498v-324q0 -156 -76 -271.5t-236 -205.5l-116 150q86 63 124.5 115.5t49.5 109.5h-244z" />
<glyph unicode="&#x201c;" horiz-adv-x="1302" d="M86 733v287q0 154 77 269.5t236 205.5l115 -149q-88 -66 -127 -117t-47 -105h244v-391h-498zM719 733v287q0 154 76.5 269.5t236.5 205.5l115 -149q-88 -66 -127 -117t-47 -105h244v-391h-498z" />
<glyph unicode="&#x201d;" horiz-adv-x="1302" d="M86 1042v392h498v-287q0 -154 -77 -269.5t-237 -205.5l-114 149q88 66 127 117t47 104h-244zM719 1042v392h498v-287q0 -154 -77 -269.5t-237 -205.5l-114 149q88 66 127 117t47 104h-244z" />
<glyph unicode="&#x201e;" horiz-adv-x="1306" d="M86 0v426h498v-324q0 -156 -76 -271.5t-236 -205.5l-116 150q86 63 124.5 115.5t49.5 109.5h-244zM721 0v426h498v-324q0 -156 -76 -271.5t-236 -205.5l-116 150q86 63 124.5 115.5t49.5 109.5h-244z" />
<glyph unicode="&#x2022;" horiz-adv-x="1105" d="M125 514q0 115 57.5 212t155.5 153.5t217 56.5q117 0 214 -56.5t154.5 -153.5t57.5 -212q0 -117 -57.5 -214t-154.5 -153.5t-214 -56.5q-119 0 -217 56.5t-155.5 153.5t-57.5 214z" />
<glyph unicode="&#x2026;" horiz-adv-x="1998" d="M86 0v426h498v-426h-498zM750 0v426h498v-426h-498zM1413 0v426h498v-426h-498z" />
<glyph unicode="&#x202f;" horiz-adv-x="397" />
<glyph unicode="&#x2039;" horiz-adv-x="1013" d="M96 553l432 432h390l-336 -432l336 -432h-390z" />
<glyph unicode="&#x203a;" horiz-adv-x="1013" d="M96 121l336 432l-336 432h389l433 -432l-433 -432h-389z" />
<glyph unicode="&#x205f;" horiz-adv-x="496" />
<glyph unicode="&#x20ac;" d="M6 512v178h144q0 72 2 105h-146v180h174q66 236 257.5 360.5t500.5 124.5q289 0 451.5 -112.5t197.5 -294.5l-452 4q-20 66 -63.5 97.5t-119.5 31.5q-84 0 -145.5 -52.5t-91.5 -158.5h399l-59 -180h-367q-6 -59 -2 -105h328l-58 -178h-243q27 -111 89 -166t154 -55 q90 0 145.5 47t94.5 149l430 -125q-154 -389 -706 -389q-314 0 -505.5 139.5t-244.5 399.5h-164z" />
<glyph unicode="&#x2122;" horiz-adv-x="2062" d="M41 1219v215h750v-215h-222v-596h-307v596h-221zM870 623v811h414l148 -390l147 390h387v-811h-287v540l-206 -540h-168l-207 540v-540h-228z" />
<glyph unicode="&#x25fc;" horiz-adv-x="1024" d="M0 0v1024h1024v-1024h-1024z" />
</font>
</defs>
</svg>
